<svg xmlns="http://www.w3.org/2000/svg" viewBox="0 0 112 32"><path d="M110.5 10.2c-1.6-1.5-3.4-1.7-5-1.7H93.4c-2.2 0-5.2.3-7.2 2-.2.2-.4.3-.6.5l.7-2.5H64.8l1.9-6.9H24.9l-2 7.5c-1.9-.4-2.4-1-2.6-1.5-.4-1-.5-2.1-.5-2.1s-1 .1-2.1 1c-.6.5-1.8 1.7-1.8 3.6 0 .3 0 .7.2 1 .1.4.3.8.6 1.1-4.4-.4-8.1.2-11.4 1.8-4.1 2-5 5.4-5.1 5.9-.3 1.7.2 3 .2 3s1.3-1.4 2.3-2c.6-.4 1.7-1.1 4-1.6 3.1-.6 8.7.1 12.6 1.3.2.1.4.1.6.2l-2.7 10h13.5l2.4-9.1c1 .5 4.6 1.8 10.3 1.1 2.4-.3 4.4-1.1 5.9-2.2l-2.7 10.3h24.5l3.3-12.3h7.8l-1 3.7c-.6 2.1-1 4.6 1.2 6.7 1.6 1.7 4.5 1.9 7.3 1.9h14.1l2.2-8.3h4l1.7-6.5c.4-1.9.7-4.1-1.2-5.9z" fill="#fff"/><path d="M30.4 8.8c5.1-.5 10.9-1 15.4.3.9.2 1.6.6 2.3.9h3.2l1.9-6.9h-27l-1.6 6.1c1.5 0 3.7-.2 5.8-.4zM21.4 20.8l-2.1 8h10.2l2.2-8.3c-2.6.8-5.8 1.3-10.3.3z"/><path d="M50.3 16.1c-.5 2.7-3.4 4.4-7 4.8-6.2.8-9.7-1.1-9.7-1.1 1.7 0 6.4.3 6.8-1.2.3-1.1-1.6-1.4-2.5-1.4-4.7.4-8.2 4.4-18.2 1.6-3.6-1-9.7-2.1-13.4-1.3-3.7.8-5 2.5-5 2.5s.9-3.2 4.5-4.9c3.8-1.8 8.6-2.4 15.7-.8 3.2.8 4.6 1.1 7.3.9.7-.1 1.6-.3 1.6-1.1s-2.4-.5-5.8-.8c-11.3-1.2-5.9-5.9-5.9-5.9s.1 2.5 4.8 3.2c1.6.2 4.5 0 7.1-.3 5-.5 10.5-.9 14.8.3 3.5 1 5.3 3.4 4.9 5.5z" fill="#e31b23"/><path d="M63.4 7.6h-9l1.2-4.5h9l-1.2 4.5zM53.7 10l-5 18.8h9l5-18.8h-9zM80.5 10c-1.5 0-2.5 0-4 .5-.9.3-1.4.6-2.1 1.2l.5-1.7h-9l-5.1 18.8h9.1l3.3-12.3h9.3l1.7-6.5h-3.7zM100.8 16.1h-7.4l-.4 1.7h7.4l.4-1.7zm9.3-.9l-1.4 5.3H92.2l-.5 1.7h12.5l-1.8 6.6H89.7c-2.6 0-5-.2-6.2-1.4-1.5-1.5-1.3-3.1-.8-5.2l1.8-6.8c.4-1.6 1.2-2.5 2.7-3.8 1.5-1.2 3.8-1.6 6.2-1.6h12.1c1.7 0 2.9.3 3.9 1.3 1.1 1.1 1.2 2.3.7 3.9z"/></svg>