<?xml version="1.0" encoding="UTF-8"?>
<svg id="Layer_1" data-name="Layer 1" xmlns="http://www.w3.org/2000/svg" version="1.1" viewBox="0 0 152.03 145.58">
  <defs>
    <style>
      .cls-1 {
        fill: #ffce01;
      }

      .cls-1, .cls-2, .cls-3 {
        stroke-width: 0px;
      }

      .cls-2 {
        fill: #231f20;
      }

      .cls-3 {
        fill: #fff;
      }
    </style>
  </defs>
  <path class="cls-1" d="M142.5,130.24c-4.74,0-7.15-1.74-13.72-20.2l-22.85-64.41c-1.33-3.54-3.46-4.98-7.38-4.98h-18.48c-3.32,0-5.82,2.45-5.82,5.7s2.5,5.82,5.7,5.82c3.65,0,3.97.74,4.25,1.37l2,4.72-6.84,16.5c-.08.17-.15.34-.22.52-5.47,13.14-12.11,18.5-22.91,18.5h-8.2c-6.42,0-9.2-3.68-9.68-7.14-.44-3.08-.44-10.62-.44-18.6v-16.88c0-20.03.37-26.85.69-29.07.82-6.03,3.23-6.03,5.35-6.03,4.27,0,6.22-2.93,6.22-5.65,0-3.4-2.41-5.86-5.73-5.86H9.11c-3.42,0-6.11,2.5-6.11,5.7,0,2.82,2.21,5.82,6.3,5.82,3.13,0,4.91.93,5.33,5.77.12,1.68.72,10.98.72,29.57v8.01c0,16.02-.45,24.71-.71,28.42-.51,6.07-1.08,6.31-5.33,6.31s-6.25,3.06-6.25,5.94c0,2.7,2.02,5.58,5.76,5.58h57.73l-5.19,12.54c-4.38,10.46-6.28,12.04-10.53,12.04-3.86,0-5.94,2.93-5.94,5.7s2.01,5.82,6.42,5.82h25.11c4.28,0,6.2-2.86,6.2-5.7,0-3.32-2.45-5.82-5.71-5.82-2.57,0-3.99-1.01-3.99-1.71,0-.25.06-.71.34-1.45l8.16-21.5h22.12l4.71,13.02c1.61,4.62,2.68,8.12,2.68,10.18,0,.72,0,1.47-4.48,1.47-3.94,0-6.07,3.06-6.07,5.94,0,3.23,2.4,5.58,5.71,5.58h36.89c3.28,0,5.57-2.29,5.57-5.58s-2.55-5.94-6.06-5.94ZM86.35,92.6l6.49-17.08,6.07,17.08h-12.56Z"/>
  <path class="cls-3" d="M142.5,132.98c-6.96,0-9.86-3.91-16.31-22.03l-22.83-64.37c-.92-2.45-2.04-3.2-4.81-3.2h-18.48c-2.02,0-3.07,1.48-3.07,2.95,0,1.72,1.3,3.07,2.95,3.07,3.37,0,5.68.51,6.78,3.05l2.45,5.78-7.31,17.65c-.06.11-.11.23-.15.36-5.9,14.21-13.52,20.27-25.48,20.27h-8.19s0,0,0,0c-8.19,0-11.8-5.11-12.4-9.5-.47-3.27-.47-10.56-.47-18.99v-16.88c0-16.21.24-26.11.72-29.44,1-7.4,4.65-8.4,8.07-8.4,2.56,0,3.47-1.5,3.47-2.91,0-1.86-1.2-3.12-2.99-3.12H9.11c-1.92,0-3.36,1.27-3.36,2.95,0,1.53,1.22,3.07,3.56,3.07,5.08,0,7.57,2.57,8.07,8.32.12,1.7.73,11.1.73,29.77v8.01c0,16.11-.45,24.88-.72,28.66-.57,6.73-1.76,8.82-8.07,8.82-2.41,0-3.5,1.66-3.5,3.19,0,1.36.94,2.83,3.02,2.83h62.19l-.48.32-6.64,16.03c-4.31,10.3-6.8,13.73-13.06,13.73-2.1,0-3.19,1.48-3.19,2.95s.97,3.07,3.68,3.07h25.11c3.11,0,3.45-2.06,3.45-2.95,0-1.78-1.25-3.07-2.97-3.07-3.9,0-6.74-1.87-6.74-4.45,0-.71.17-1.5.52-2.43l22.22-58.54,9.87,27.79h-17.41l-2.79,7.48h22.88l5.37,14.86c1.75,5.02,2.84,8.63,2.84,11.08,0,2.6-1.21,4.21-7.23,4.21-2.28,0-3.32,1.66-3.32,3.19,0,1.69,1.19,2.83,2.96,2.83h36.89c1.74,0,2.83-1.08,2.83-2.83,0-1.94-1.3-3.19-3.31-3.19Z"/>
  <path class="cls-2" d="M142.5,134.35c-8.13,0-11.29-5.22-17.6-22.95l-22.82-64.34c-.73-1.94-1.34-2.31-3.52-2.31h-18.48c-1.21,0-1.7.85-1.7,1.58,0,.85.61,1.7,1.58,1.7,2.85,0,6.46.24,8.04,3.88l2.67,6.31-7.55,18.24c-.04.08-.08.16-.1.25h0c-5.3,12.79-12.73,21.17-26.77,21.17h-8.19c-8.59,0-13.03-5.33-13.76-10.67-.49-3.4-.48-10.81-.48-19.43v-16.63c0-16.39.24-26.22.73-29.62.97-7.16,4.43-9.59,9.44-9.59,1.58,0,2.1-.68,2.1-1.53s-.4-1.74-1.61-1.74H9.11c-1.21,0-1.99.73-1.99,1.58s.73,1.7,2.19,1.7c5.2,0,8.83,2.55,9.44,9.59.24,3.4.73,13.23.73,29.87v8.01c0,16.75-.49,25.37-.73,28.77-.61,7.16-2.13,10.08-9.43,10.08-1.58,0-2.13.97-2.13,1.82,0,.73.43,1.46,1.64,1.46h66.74l-3.93,2.61-6.48,15.64c-4.37,10.44-7.16,14.57-14.33,14.57-1.34,0-1.82.85-1.82,1.58,0,.85.49,1.7,2.31,1.7h25.11c1.7,0,2.08-.73,2.08-1.58s-.5-1.7-1.59-1.7c-4.86,0-8.11-2.55-8.11-5.83,0-.97.24-1.94.61-2.91l23.55-62.04,11.78,33.14h-18.4l-1.77,4.73h24.25l-1.42,2.64,4.75,13.14c1.82,5.22,2.91,8.86,2.91,11.53,0,4.49-3.49,5.58-8.6,5.58-1.46,0-1.95.97-1.95,1.82,0,.73.37,1.46,1.59,1.46h36.89c1.21,0,1.45-.73,1.45-1.46,0-.85-.36-1.82-1.94-1.82Z"/>
</svg>