<?xml version="1.0" encoding="utf-8"?>
<!-- Generator: Adobe Illustrator 23.0.1, SVG Export Plug-In . SVG Version: 6.00 Build 0)  -->
<svg version="1.1" id="Layer_1" xmlns="http://www.w3.org/2000/svg" xmlns:xlink="http://www.w3.org/1999/xlink" x="0px" y="0px"
	 width="169.2px" height="141.9px" viewBox="0 0 169.2 141.9" style="enable-background:new 0 0 169.2 141.9;" xml:space="preserve"
	>
<style type="text/css">
	.st0{fill:#FFFFFF;}
	.st1{fill:#A6A8AB;}
	.st2{fill:#C10230;}
	.st3{fill:#231F20;}
	.st4{fill:#A7A8A9;}
	.st5{fill:#D0CFCD;}
</style>
<title>logo</title>
<desc>Created with Sketch.</desc>
<g>
	<path class="st0" d="M156.4,138.9c-13,0.8-26,1.2-38.9,1.5l-4.9,0.1l-4.9,0.1l-9.7,0.1c-6.5,0.1-13,0.1-19.5,0.1l-9.7,0l-4.9,0
		c-1.6,0-3.2,0-4.9,0l-9.7-0.1l-4.9-0.1l-4.9-0.1c-13-0.3-26-0.7-38.9-1.5v-0.2l77.9-0.1l77.9,0.1V138.9z"/>
	<g>
		<path d="M36.5,97.9c1-3.9-1.2-6.7-5.3-6.7h-8.4c-3.9,0-7.9,3-8.8,6.6l-2.2,8.1c-0.6,2.2,0.2,3.8,0.6,4.6l0,0l4.2,7.4h-8l-2.1,7.8
			c-1,3.8,1.3,6.7,5.3,6.7h8.4c4,0,7.8-2.9,8.9-6.7l2.1-7.8c0.6-2.3-0.2-4-0.8-5.2l0-0.1l-4-7h8.1L36.5,97.9z"/>
		<polygon points="59.6,91.1 48,91.1 27.8,132.5 41,132.5 44,126 44.7,126 44.1,132.5 57.6,132.5 		"/>
		<polygon points="70.4,91.1 59.4,132.5 72.3,132.5 83.4,91.1 		"/>
		<polygon points="97.6,91.1 96.1,96.8 94.8,91.1 85.8,91.1 74.7,132.5 87.3,132.5 88.7,127.1 90.1,132.5 99.2,132.5 110.3,91.1 		
			"/>
		<polygon points="112.6,91.1 109.5,102.6 115.1,102.6 107.1,132.5 120,132.5 128,102.6 133.6,102.6 136.6,91.1 		"/>
		<path d="M159.7,97.9c1-3.9-1.2-6.7-5.3-6.7h-8.4c-3.9,0-7.9,3-8.8,6.6l-2.2,8.1c-0.6,2.2,0.2,3.8,0.6,4.6l0,0l4.2,7.4h-8l-2.1,7.8
			c-1,3.8,1.3,6.7,5.3,6.7h8.4c4,0,7.8-2.9,8.9-6.7l2.1-7.8c0.6-2.3-0.2-4-0.8-5.2l0-0.1l-4-7h8.1L159.7,97.9z"/>
		<path class="st1" d="M33.3,104.1l1.7-6.2c0.8-3-0.9-5.1-4.1-5.1h-8.4c-3,0-6.1,2.3-6.8,5.1l-2.2,8.1c-0.5,1.7,0.2,2.9,0.5,3.6
			l5.4,9.6l-0.1,0.4H9.7l-1.7,6.2c-0.8,2.9,1,5.1,4.1,5.1h8.4c3.1,0,6.1-2.2,6.8-5.1l2.1-7.8c0.4-1.7-0.1-2.9-0.7-4.2l0,0l-5.2-9
			l0.2-0.6H33.3z"/>
		<polygon class="st1" points="57.9,92.7 48.9,92.7 30.2,130.9 40.1,130.9 43.1,124.4 46.4,124.4 45.9,130.9 56,130.9 		"/>
		<polygon class="st1" points="71.6,92.7 61.4,130.9 71.2,130.9 81.4,92.7 		"/>
		<polygon class="st1" points="98.8,92.7 95.9,103.5 93.4,92.7 86.9,92.7 76.7,130.9 86.1,130.9 88.9,120.5 91.5,130.9 98,130.9 
			108.2,92.7 		"/>
		<polygon class="st1" points="113.8,92.7 111.6,101 117.1,101 109.1,130.9 118.9,130.9 126.9,101 132.4,101 134.6,92.7 		"/>
		<path class="st1" d="M156.5,104.1l1.7-6.2c0.8-3-0.9-5.1-4.1-5.1h-8.4c-3,0-6.1,2.3-6.8,5.1l-2.2,8.1c-0.5,1.7,0.2,2.9,0.5,3.6
			l5.4,9.6l-0.1,0.4H133l-1.7,6.2c-0.8,2.9,1,5.1,4.1,5.1h8.4c3.1,0,6.1-2.2,6.8-5.1l2.1-7.8c0.4-1.7-0.1-2.9-0.7-4.2l0,0l-5.2-9
			l0.2-0.6H156.5z"/>
		<path class="st0" d="M32.6,103.2l1.4-5.3c0.7-2.5-0.7-4.2-3.4-4.2h-8.4c-2.5,0-5.1,1.9-5.7,4.2l-2.2,8.1c-0.3,1.3,0.1,2.3,0.5,3.1
			l5.6,9.8l-1.3,4.7h-1.5l0.8-3h-8L9,125.8c-0.6,2.4,0.8,4.2,3.4,4.2h8.4c2.6,0,5-1.8,5.7-4.2l2.1-7.8c0.4-1.4-0.1-2.5-0.7-3.7
			l-5.3-9.3l1.3-4.8h1.5l-0.8,3H32.6z"/>
		<path class="st0" d="M56.9,93.6h-7.6L31.6,130h8l3-6.5h4.8l-0.5,6.5h8.2L56.9,93.6z M47.9,116.9h-2.2l2.5-5.2L47.9,116.9z"/>
		<polygon class="st0" points="72.3,93.6 62.5,130 70.5,130 80.3,93.6 		"/>
		<polygon class="st0" points="99.5,93.6 95.8,107.3 92.6,93.6 87.6,93.6 77.9,130 85.5,130 89,116.8 92.3,130 97.4,130 107.1,93.6 
					"/>
		<polygon class="st0" points="114.4,93.6 112.7,100.1 118.2,100.1 110.2,130 118.2,130 126.2,100.1 131.7,100.1 133.5,93.6 		"/>
		<path class="st0" d="M155.8,103.2l1.4-5.3c0.7-2.5-0.7-4.2-3.4-4.2h-8.4c-2.5,0-5.1,1.9-5.7,4.2l-2.2,8.1
			c-0.3,1.3,0.1,2.3,0.5,3.1l5.6,9.8l-1.3,4.7h-1.5l0.8-3h-8l-1.4,5.3c-0.6,2.4,0.8,4.2,3.4,4.2h8.4c2.6,0,5-1.8,5.7-4.2l2.1-7.8
			c0.4-1.4-0.1-2.5-0.7-3.7l-5.3-9.3l1.3-4.8h1.5l-0.8,3H155.8z"/>
		<path class="st2" d="M30.4,94.3H22c-2.1,0-4.3,1.6-4.8,3.5l-2.2,8.1c-0.3,1.1,0.1,1.9,0.4,2.6l5.7,10l-1.5,5.6h-2.9l0.8-3h-6.6
			l-1.2,4.6c-0.5,2,0.7,3.5,2.9,3.5H21c2.2,0,4.3-1.5,4.8-3.6l2.1-7.8c0.3-1.2-0.1-2.1-0.6-3.3l-5.4-9.5l1.5-5.8h2.9l-0.8,3h6.6
			l1.2-4.6C33.9,95.7,32.7,94.3,30.4,94.3"/>
		<path class="st2" d="M49.7,94.3l-17.1,34.9h6.6l3-6.5h5.9l-0.5,6.5h6.8l1.7-34.9H49.7z M48.6,117.6h-3.9l4.5-9.3L48.6,117.6z"/>
		<polygon class="st2" points="63.4,129.3 70,129.3 79.4,94.3 72.8,94.3 		"/>
		<polygon class="st2" points="95.7,110.2 92,94.3 88.1,94.3 78.7,129.3 85,129.3 89.1,113.9 92.9,129.3 96.8,129.3 106.2,94.3 
			100,94.3 		"/>
		<polygon class="st2" points="113.6,99.5 119.1,99.5 111.1,129.3 117.7,129.3 125.7,99.5 131.2,99.5 132.6,94.3 114.9,94.3 		"/>
		<path class="st2" d="M155.3,102.5l1.2-4.6c0.6-2.1-0.6-3.5-2.9-3.5h-8.4c-2.1,0-4.3,1.6-4.8,3.5l-2.2,8.1
			c-0.3,1.1,0.1,1.9,0.4,2.6l5.7,10l-1.5,5.6h-2.9l0.8-3h-6.6l-1.2,4.6c-0.5,2,0.7,3.5,2.9,3.5h8.4c2.2,0,4.3-1.5,4.8-3.6l2.1-7.8
			c0.3-1.2-0.1-2.1-0.6-3.3l-5.4-9.5l1.5-5.8h2.9l-0.8,3H155.3z"/>
	</g>
	<path class="st0" d="M12.9,73.1c13-0.8,25.9-1.2,38.9-1.5l4.9-0.1l4.9-0.1l9.7-0.1c6.5-0.1,13-0.1,19.5-0.1l9.7,0l4.9,0
		c1.6,0,3.2,0,4.9,0l9.7,0.1l4.9,0.1l4.9,0.1c13,0.3,25.9,0.7,38.9,1.5v0.2l-77.8,0.1l-77.8-0.1V73.1z"/>
	<polygon class="st3" points="92.2,72.6 91.7,67.9 76.4,71.5 81.4,71.9 	"/>
	<g>
		<path d="M118.6,8L121,7l-2.3-1.3c-5.2-3-11.1-4.5-17.1-4.6c-0.1,0-0.2,0-0.3,0c-15.3,0-28.9,9.9-34,24.6c-3.1,9.1-2.9,18.1-2.8,26
			c0.1,5.4,0.2,10.1-0.8,13.8c-1,3.9-3.1,6.3-6.6,7.8l-3,1.2l3,1.2c1,0.4,2.1,0.6,3.3,0.6c3.8,0,7.7-2.1,10.7-5.9
			c0.1-0.2,0.3-0.4,0.5-0.6c-0.1,0.3-0.1,0.6,0,0.9c0.1,0.2,0.2,0.7,0.3,0.9c0.2,0.4,0.7,0.7,1.2,0.7l0,0c0.2,0,2.5-0.1,7.5-1.2
			c2.4-0.5,5.4-1.3,9.1-2.4c0.1,1.2,0.1,2.4,0.1,3.7l0,0.9l0.8,0.3c2.2,0.9,8.4,3.1,18.1,4.2l2.4,0.3l-1.1-2.2
			c-1.1-2.3-3.6-8.6-1.3-17.2l0.3-1.2l-1.2-0.4c0,0-0.3-0.1-0.8-0.3c0.3-0.8,0.6-1.7,1-2.5c0,0-1.9-0.9-3.9-2.7
			c1.2-0.2,2.9-0.5,4.3-0.8c2.1-0.4,4.4-1,4.4-1c0.3-4.2-0.3-8.2-0.9-10.8c-0.3-1.2-0.6-2.4-1-3.6l-1.1-2.8
			c-1.6,1.1-2.6,1.7-4.2,2.6c-0.7-0.7-1.5-1.3-2.3-1.8l4.5-11.8l-1.1-1c0.4-1,1.1-2.2,1.9-3.5C110.3,14.2,113.6,10.3,118.6,8z"/>
		<path class="st2" d="M108.9,3.3c-0.2,0.7-0.5,1.4-0.7,2.1c-0.4,0.9-0.8,1.7-1.2,2.6c-0.4,0.8-0.9,1.7-1.4,2.5
			c-0.5,0.8-1,1.6-1.6,2.3l-0.1,0c0.9-1.6,1.8-3.3,2.5-5c0.4-0.9,0.7-1.7,1-2.6c0.2-0.7,0.4-1.3,0.6-2c-2.1-0.4-4.2-0.6-6.4-0.7
			c-0.2,0-0.4,0-0.6,0c0.1,0.7,0,1.5,0,2.2c-0.1,1-0.2,2-0.4,3c-0.2,1-0.5,2-0.8,2.9c-0.3,1-0.6,1.9-1,2.9l-0.1,0
			c0.3-1,0.6-1.9,0.8-2.9c0.2-1,0.4-2,0.6-3c0.1-1,0.2-2,0.2-3c0-0.7,0-1.4-0.1-2.1c-2.4,0.1-4.8,0.4-7.1,1c0.1,0.5,0.2,1,0.3,1.5
			c0.1,0.8,0.2,1.5,0.3,2.3c0,0.8,0.1,1.5,0,2.3c0,0.8-0.1,1.5-0.2,2.3l-0.1,0c0-1.5-0.1-3-0.3-4.5c-0.1-0.7-0.2-1.5-0.4-2.2
			c-0.1-0.5-0.3-1-0.5-1.5c-2.7,0.7-5.2,1.8-7.6,3.1c0.3,0.3,0.5,0.6,0.8,1c0.4,0.6,0.9,1.2,1.3,1.8c0.4,0.6,0.7,1.2,1.1,1.9
			c0.3,0.6,0.6,1.3,0.8,2l-0.1,0c-0.6-1.3-1.4-2.5-2.3-3.6c-0.4-0.6-0.9-1.1-1.4-1.6c-0.3-0.3-0.7-0.7-1-1c-1.8,1-3.4,2.2-5,3.6
			c0.3,0.2,0.6,0.4,0.9,0.6c0.3,0.2,0.6,0.4,0.9,0.6c0.3,0.2,0.6,0.4,0.8,0.7c0.5,0.5,1.1,1,1.5,1.5c0.5,0.5,0.9,1.1,1.3,1.7l-0.1,0
			c-0.9-1.1-2-2-3.1-2.8c-0.6-0.4-1.2-0.8-1.8-1.1c-0.4-0.2-0.8-0.4-1.2-0.6c-1.6,1.5-3.1,3.1-4.4,4.8c0.2,0,0.5,0.1,0.7,0.1
			c0.6,0.1,1.3,0.3,1.9,0.4c0.6,0.2,1.2,0.4,1.8,0.7c0.6,0.3,1.2,0.6,1.7,1l-0.1,0.1c-0.5-0.3-1.1-0.6-1.7-0.8
			c-0.6-0.2-1.2-0.4-1.8-0.5c-0.6-0.1-1.2-0.2-1.9-0.2c-0.4,0-0.8,0-1.2,0c-1.1,1.6-2.1,3.3-3,5.1c0.2-0.1,0.4-0.1,0.6-0.2
			c0.6-0.2,1.3-0.3,1.9-0.3c0.6-0.1,1.3-0.1,1.9,0c0.6,0,1.3,0.1,1.9,0.3l0,0.1c-0.6-0.1-1.3-0.1-1.9,0c-0.6,0-1.2,0.1-1.8,0.2
			c-0.6,0.1-1.2,0.3-1.8,0.5c-0.5,0.2-0.9,0.4-1.4,0.7c-0.4,0.9-0.8,1.9-1.1,2.9c-0.2,0.6-0.4,1.1-0.5,1.7c0,0,0.1-0.1,0.1-0.1
			c0.5-0.3,1-0.6,1.6-0.9c0.5-0.3,1.1-0.5,1.7-0.6c0.6-0.1,1.2-0.3,1.8-0.3l0,0.1c-0.6,0.1-1.1,0.3-1.7,0.5C71,26.8,70.4,27,70,27.3
			c-0.5,0.3-1,0.6-1.4,1c-0.3,0.3-0.6,0.6-0.9,0.9c-0.3,1.3-0.6,2.6-0.8,3.9c0.4-0.3,0.7-0.7,1.1-1c0.5-0.4,0.9-0.7,1.4-1
			c0.5-0.3,1-0.6,1.6-0.7l0,0.1c-0.5,0.2-1,0.6-1.4,0.9c-0.4,0.4-0.9,0.7-1.3,1.1c-0.4,0.4-0.8,0.8-1.1,1.2
			c-0.2,0.2-0.3,0.4-0.5,0.7c0,0,0,0-0.1,0.1c-0.1,0.9-0.3,1.8-0.3,2.7c0,0,0.1,0,0.1-0.1c0.4-0.2,0.7-0.5,1.1-0.8
			c0.7-0.5,1.4-1.1,2.1-1.7l0.1,0.1c-0.3,0.4-0.6,0.7-0.8,1c-0.3,0.3-0.6,0.7-0.9,1c-0.3,0.3-0.7,0.6-1,0.9
			c-0.2,0.2-0.4,0.4-0.7,0.6c-0.1,1.2-0.2,2.4-0.2,3.6c0.3-0.2,0.7-0.5,1-0.7c0.6-0.5,1.2-1.1,1.7-1.8l0.1,0
			c-0.2,0.4-0.4,0.8-0.6,1.1c-0.2,0.4-0.5,0.7-0.8,1c-0.3,0.3-0.6,0.6-0.9,0.9c-0.1,0.1-0.3,0.3-0.5,0.4c0,1.4-0.1,2.8-0.1,4.2
			c0,0,0,0,0,0c0.3-0.3,0.6-0.6,0.9-1c0.3-0.3,0.6-0.7,0.8-1.1c0.3-0.4,0.5-0.8,0.7-1.2l0.1,0c-0.1,0.5-0.3,0.9-0.5,1.3
			c-0.2,0.4-0.4,0.8-0.7,1.2c-0.3,0.4-0.5,0.8-0.8,1.2c-0.2,0.2-0.3,0.4-0.5,0.7c0,1.5,0,3,0.1,4.4c0,0,0,0,0.1,0
			c0.3-0.3,0.6-0.7,0.9-1c0.3-0.4,0.6-0.7,0.8-1.1c0.2-0.4,0.5-0.8,0.7-1.2l0.1,0c-0.1,0.5-0.3,0.9-0.5,1.3
			c-0.2,0.4-0.4,0.8-0.7,1.3c-0.2,0.4-0.5,0.8-0.8,1.2c-0.2,0.3-0.4,0.5-0.6,0.8c0,1.4,0,2.7,0,4c0,0,0.1-0.1,0.1-0.1
			c0.4-0.4,0.8-0.8,1.1-1.2c0.7-0.8,1.3-1.7,1.8-2.7l0.1,0c-0.1,0.5-0.4,1-0.6,1.5c-0.2,0.5-0.5,1-0.8,1.4c-0.3,0.5-0.7,0.9-1,1.3
			c-0.2,0.2-0.4,0.4-0.5,0.6c0,0.1-0.1,0.1-0.1,0.1c0,1.3-0.1,2.6-0.3,3.8c0,0,0.1-0.1,0.1-0.1c0.4-0.3,0.8-0.5,1.1-0.8
			c0.4-0.3,0.7-0.6,1-0.9c0.3-0.3,0.6-0.7,0.8-1.1l0.1,0c-0.1,0.5-0.4,0.9-0.7,1.3c-0.3,0.4-0.6,0.8-0.9,1.1c-0.3,0.4-0.7,0.7-1,1
			c-0.2,0.2-0.5,0.4-0.7,0.6c-0.3,1.6-0.7,3.1-1.2,4.4c0.1,0,0.2-0.1,0.3-0.2c0.6-0.3,1.1-0.7,1.6-1.1c0.5-0.4,1-0.9,1.4-1.4
			c0.4-0.5,0.8-1.1,1.2-1.7l0.1,0c-0.2,0.7-0.6,1.3-1,1.8c-0.4,0.6-0.8,1.1-1.3,1.6c-0.5,0.5-1,0.9-1.6,1.3
			c-0.4,0.3-0.8,0.6-1.3,0.8c-1.2,2.1-3.1,3.8-5.9,4.9c5.5,2.2,13.9-2.6,17-13.9c-3-3.8-4.9-8.4-5.5-13.4c-0.8-7,1.2-13.9,5.7-19.3
			c4.4-5.5,10.7-8.9,17.7-9.7c1-0.1,1.9-0.2,2.9-0.2c2.7,0,5.3,0.4,7.9,1.2c0.5-1.3,1-2.5,1.6-3.7c0.7-1.4,1.6-2.6,2.5-3.8
			c1-1.2,2-2.3,3.2-3.3c1.2-1,2.4-1.8,3.8-2.4c-1.4,0.7-2.6,1.6-3.7,2.6c-1.1,1-2.1,2.2-3,3.4c-0.9,1.2-1.7,2.5-2.3,3.9
			c-0.6,1.2-1,2.4-1.4,3.6c0.3,0.1,0.6,0.2,0.9,0.3l0.2,0.1l0.4,0.4c1.6-3.6,5.4-10,12.6-13.3C115.2,5.2,112.1,4,108.9,3.3z"/>
		<g>
			<polygon class="st4" points="111.6,47.5 111.6,47.5 111.6,47.5 			"/>
			<path class="st4" d="M109.6,35.9c-2.8,1.7-12.1,7.3-24.3,10.3c0.1,1.8,0.2,3.3,0.3,4.4c8,0,14.7-0.9,18.9-1.6
				c3.6-0.6,6.1-1.2,7.1-1.5c0-2.5-0.3-5.1-0.9-7.7C110.4,38.5,110,37.2,109.6,35.9z M87.9,49.8c-1,0-1.7-0.8-1.7-1.7
				c0-1,0.8-1.7,1.7-1.7c1,0,1.7,0.8,1.7,1.7C89.6,49.1,88.9,49.8,87.9,49.8z"/>
		</g>
		<path class="st4" d="M89.9,63.7c-6.3,1.8-15.2,5.6-17.3,6.6l0.3,0.8c2-0.9,10.8-4.6,17-6.5C90,64.3,89.9,64,89.9,63.7z"/>
		<path class="st4" d="M102,32.9l3.5-9.3l-1.1-1l-3.7,9.6C101.2,32.5,101.6,32.7,102,32.9z"/>
		<path class="st5" d="M75.7,58.8c-2.5-3.4-4.2-7.5-4.6-11.9c-0.7-6.5,1.2-12.9,5.2-18c4.1-5.1,9.9-8.3,16.4-9
			c0.9-0.1,1.8-0.1,2.7-0.1c2.7,0,5.3,0.4,7.9,1.3c0.3,0.1,0.6,0.2,0.9,0.3l0.3-0.9c-3.7-1.4-7.7-2-11.9-1.6
			c-14,1.5-24,14.1-22.5,28c0.6,5.2,2.7,9.9,5.8,13.6C75.9,60,75.8,59.4,75.7,58.8z"/>
		<g>
			<path class="st4" d="M95.7,22.4c-0.1,0-0.3,0-0.4,0c-0.7,0-1.3,0-2,0.1c-5.8,0.5-11.1,3.4-14.9,7.9c-3,3.7-4.8,8.1-5.1,12.8
				c2.5-8.4,10.2-14.6,19.4-14.6l0.1,0c2.1,0,4.1,0.3,6,1l2.4-6.4C99.6,22.7,97.7,22.4,95.7,22.4z"/>
			<path class="st4" d="M95.8,20.4c-0.9,0-1.8,0-2.6,0.1c-6.4,0.6-12.1,3.7-16.2,8.7c-4.1,5-6,11.3-5.5,17.8
				c0.4,4.3,1.9,8.4,4.3,11.9c-0.2-1.3-0.4-2.6-0.6-3.8c-0.4-2.2-0.8-4.3-0.8-6.1c0-4.9,1.9-9.6,5.5-13.1c3.5-3.5,8.1-5.4,13-5.4
				c0,0,0.1,0,0.1,0c2.6,0,5,0.6,7.3,1.6l3.8-9.9C101.3,21,98.6,20.5,95.8,20.4z M99.3,30.3c-2-0.7-4.2-1.1-6.4-1.1l-0.1,0
				c-10.8,0-19.7,8.8-19.7,19.7c0,0,0,0,0,0c-0.1-0.7-0.2-1.4-0.3-2.1c-0.5-6.1,1.3-12.1,5.2-16.8c3.9-4.7,9.3-7.6,15.3-8.1
				c0.7-0.1,1.4-0.1,2-0.1c0.1,0,0.3,0,0.4,0c2.2,0,4.3,0.4,6.4,1.1L99.3,30.3z"/>
		</g>
		<path class="st5" d="M75.9,33.2c0.6-1.1,1.3-2.1,2.1-3.1c3.9-4.7,9.3-7.6,15.3-8.1c0.7-0.1,1.4-0.1,2-0.1c0.1,0,0.3,0,0.4,0
			c2.1,0,4.3,0.4,6.3,1l1.9-0.8c-2.6-1-5.4-1.6-8.2-1.6c-0.9,0-1.8,0-2.6,0.1c-6.4,0.6-12.1,3.7-16.2,8.7c-4.1,5-6,11.3-5.5,17.8
			c0.2,2.3,0.7,4.6,1.6,6.7c-0.5-1.6-0.8-3.3-1-5C71.5,43.2,72.9,37.7,75.9,33.2z"/>
		<polygon class="st4" points="105.1,21 104.7,21.9 105.8,22.9 106.1,22 		"/>
		<path d="M99,25.5l-0.1-0.1l-0.1,0.1c0,0-0.1,0.2-0.4,0.1c-0.7-0.1-1.1-0.2-1.4-0.2l0.5-1.6c0.1-0.2,0.3-0.3,0.3-0.3l0.2,0
			l-0.1-0.2c-0.1-0.2-0.2-0.2-0.3-0.2c-0.1,0-0.3,0-0.4,0.1C97.2,23,97.1,23,97,23c-0.2,0-0.4,0.1-0.5,0.1l-0.2,0.1l0.2,0.1
			c0,0,0.2,0.1,0.1,0.3c-0.1,0.3-0.4,1.2-0.5,1.6c-1-0.1-1.5-0.1-1.5-0.1c-0.2,0-0.3-0.1-0.3-0.1l0-0.2l-0.2,0.1
			c0,0-0.3,0.2-0.4,0.4c0,0.1,0,0.2,0.1,0.2c-0.1,0.1-0.2,0.2-0.2,0.3c0,0.1,0.1,0.3,0.2,0.4l0.2,0.1l0.1-0.2c0,0,0.1-0.2,0.4-0.2
			c0,0,0.7,0,1.4,0.1c-0.1,0.4-0.4,1.3-0.4,1.5c-0.1,0.2-0.3,0.3-0.3,0.3L95,27.9l0.1,0.2c0,0,0.2,0.2,0.4,0.2c0.1,0,0.2,0,0.3,0
			c0,0,0.1,0.1,0.2,0.1c0,0,0.1,0,0.1,0c0.1,0,0.2,0,0.4-0.1l0.2-0.1l-0.2-0.1c0,0-0.2-0.1-0.1-0.3l0.5-1.6c0.2,0,0.7,0.1,1.3,0.2
			c0.2,0.1,0.2,0.2,0.2,0.2l-0.1,0.2l0.2-0.1c0.2-0.1,0.4-0.2,0.4-0.4c0-0.1,0-0.2,0-0.2c0.1-0.1,0.2-0.2,0.2-0.3
			C99.2,25.7,99,25.5,99,25.5z"/>
		<path d="M92,25.7c0.1-0.1,0.1-0.2,0.1-0.3c0-0.2-0.2-0.3-0.2-0.3L91.8,25l0,0.1c0,0-0.1,0.2-0.3,0.2c-0.5,0.1-0.9,0.1-1.1,0.2
			l0-1.3c0-0.2,0.2-0.3,0.2-0.3l0.1-0.1l-0.1-0.1c-0.1-0.1-0.2-0.1-0.3-0.1c-0.1,0-0.2,0.1-0.3,0.1c-0.1,0-0.1,0-0.2,0
			c-0.2,0-0.3,0.2-0.4,0.2L89.2,24l0.2,0c0,0,0.2,0,0.2,0.2c0,0.2,0,0.9,0,1.4c-0.8,0.2-1.2,0.3-1.2,0.3c-0.2,0.1-0.2,0-0.2,0
			L88,25.8l-0.1,0.1c0,0-0.2,0.2-0.2,0.5c0,0.1,0,0.1,0.1,0.2c-0.1,0.1-0.1,0.2-0.1,0.3c0,0.1,0.1,0.2,0.3,0.3l0.1,0l0-0.2
			c0,0,0-0.2,0.3-0.2c0,0,0.5-0.2,1.1-0.3c0,0.4,0,1.2,0,1.4c0,0.2-0.2,0.3-0.2,0.3l-0.2,0.1l0.2,0.1c0,0,0.2,0.1,0.3,0.1
			c0,0,0,0,0.1,0c0.1,0,0.1-0.1,0.2-0.1c0,0,0.1,0,0.2,0c0.1,0,0.3-0.1,0.4-0.2l0.1-0.2l-0.2-0.1c0,0-0.2,0-0.2-0.2l0-1.4
			c0.2,0,0.7-0.1,1.1-0.2c0.2,0,0.2,0.1,0.2,0.1l0,0.2l0.2-0.1c0.2-0.1,0.3-0.3,0.3-0.4C92.1,25.8,92.1,25.7,92,25.7z"/>
		<path d="M86.1,27.3c0-0.1-0.1-0.1-0.1-0.1c0.1-0.1,0.1-0.2,0-0.3c-0.1-0.1-0.2-0.2-0.2-0.2l-0.1,0l0,0.1c0,0,0,0.1-0.2,0.2
			c-0.4,0.2-0.7,0.3-0.9,0.4l-0.2-0.9c0-0.2,0.1-0.3,0.1-0.3l0.1-0.1L84.4,26c-0.1,0-0.2-0.1-0.3,0c-0.1,0-0.2,0.1-0.2,0.2
			c-0.1,0-0.1,0-0.2,0c-0.2,0.1-0.2,0.3-0.2,0.3l0,0.1l0.2,0c0,0,0,0,0,0c0,0,0.1,0,0.2,0.1c0,0.1,0.2,0.7,0.2,0.9
			c-0.6,0.3-0.9,0.5-0.9,0.5c-0.1,0.1-0.2,0.1-0.2,0l-0.1-0.1l-0.1,0.1c0,0-0.1,0.2-0.1,0.4c0,0,0.1,0.1,0.1,0.1c0,0.1,0,0.2,0,0.3
			c0,0.1,0.1,0.1,0.3,0.1l0.1,0l0-0.1c0,0,0-0.1,0.2-0.3c0,0,0.4-0.2,0.8-0.5c0.1,0.3,0.2,0.9,0.3,1c0,0.2-0.1,0.3-0.1,0.3l-0.1,0.1
			l0.2,0c0,0,0.1,0,0.2,0c0.1,0,0.2-0.1,0.3-0.2c0,0,0.1,0,0.1,0c0.1,0,0.2-0.1,0.3-0.3l0.1-0.2l-0.2,0c0,0-0.1,0-0.2-0.1L84.8,28
			c0.2-0.1,0.5-0.2,0.9-0.4c0.1,0,0.1,0,0.2,0c0,0,0,0,0,0l0.1,0.2l0.1-0.1C86.2,27.5,86.2,27.4,86.1,27.3z"/>
		<path d="M81.5,29.9C81.5,29.9,81.5,29.8,81.5,29.9c-0.1-0.1-0.1-0.2-0.1-0.3c-0.1-0.1-0.2-0.1-0.2-0.1l-0.1,0l0,0.1
			c0,0,0,0.1-0.1,0.2c-0.3,0.2-0.5,0.4-0.6,0.5l-0.3-0.6c-0.1-0.1,0-0.2,0-0.2l0-0.1l-0.1,0c-0.1,0-0.1,0-0.2,0
			c-0.1,0-0.1,0.1-0.1,0.2c0,0-0.1,0-0.1,0.1c-0.1,0.1-0.1,0.2-0.1,0.2l0,0.1l0.1,0c0,0,0.1,0,0.1,0.1c0.1,0.1,0.2,0.4,0.3,0.6
			c-0.4,0.3-0.6,0.6-0.6,0.6c-0.1,0.1-0.1,0.1-0.1,0.1l-0.1-0.1l0,0.1c0,0-0.1,0.2,0,0.3c0,0,0.1,0,0.1,0.1c0,0.1,0,0.1,0,0.2
			c0,0,0.1,0.1,0.2,0l0.1,0l0-0.1c0,0,0-0.1,0.1-0.2c0,0,0.3-0.3,0.6-0.6c0.1,0.2,0.3,0.6,0.4,0.7c0.1,0.1,0,0.2,0,0.2L80.6,32
			l0.1,0c0,0,0,0,0,0c0.1,0,0.2,0,0.3-0.2c0,0,0.1,0,0.1,0c0.1,0,0.1-0.1,0.1-0.2l0-0.1l-0.1,0c0,0-0.1,0-0.1-0.1l-0.4-0.7
			c0.1-0.1,0.4-0.4,0.6-0.5c0,0,0.1,0,0.1,0c0,0,0,0,0,0l0.1,0.1l0.1-0.1C81.6,30.1,81.6,30,81.5,29.9z"/>
		<path d="M78.3,33.9C78.3,33.9,78.3,33.9,78.3,33.9L78,33.5c0.1-0.1,0.2-0.2,0.3-0.3c0,0,0,0,0,0l0.1,0.1l0-0.1c0-0.1,0-0.2,0-0.2
			c0,0,0,0,0,0c0,0,0-0.1,0-0.1c-0.1-0.1-0.1,0-0.2,0l-0.1,0l0,0.1c0,0,0,0,0,0.1c-0.1,0.1-0.2,0.3-0.3,0.3l-0.3-0.4
			c0,0,0-0.1,0-0.1l0-0.1l-0.1,0c0,0-0.1,0-0.1,0c0,0,0,0.1-0.1,0.1c0,0,0,0-0.1,0c-0.1,0.1,0,0.2,0,0.2l0,0.1l0.1-0.1c0,0,0,0,0,0
			c0,0,0.2,0.3,0.3,0.4c-0.1,0.2-0.2,0.3-0.3,0.4c0,0,0,0,0,0l-0.1-0.1l0,0.1c0,0,0,0.1,0.1,0.2c0,0,0,0,0.1,0c0,0,0,0.1,0.1,0.1
			c0,0,0,0,0.1,0c0,0,0,0,0,0c0,0,0.1,0,0.1,0l0.1,0l-0.1-0.1c0,0,0,0,0-0.1c0,0,0.1-0.2,0.2-0.3c0.1,0.1,0.2,0.3,0.3,0.3
			c0,0,0,0.1,0,0.1l0,0.1l0.1,0c0.1,0,0.2,0,0.2-0.1c0,0,0,0,0,0c0,0,0.1-0.1,0.1-0.2l0-0.1L78.3,33.9z"/>
		<g>
			<path class="st4" d="M90.2,66.5c-3,1-5.6,1.7-7.8,2.2c-0.1,0-0.1-0.1,0-0.1c2.5-1,5.3-2,7.8-2.7c0-0.2,0-0.3,0-0.5
				c-4.8,1.4-11.1,4-14.6,5.5c2.6-0.4,7.4-1.3,14.7-3.6C90.2,67,90.2,66.7,90.2,66.5z"/>
			<path class="st4" d="M89.8,63c-0.7-4.6-1.7-8.2-2.5-10.5c-0.8,0-1.7,0-2.6,0l-0.8,0l-0.1-0.8c-0.1-1.4-0.3-3.6-0.4-6.1l0-0.8
				l0.7-0.2c8.9-2.1,16.4-5.7,20.8-8.1c-3.2-3.1-7.5-5-12.2-5c-9.7,0-17.6,7.9-17.6,17.6c0,5.4,3.7,14,0.1,19.3
				C79,66.8,85.1,64.3,89.8,63z"/>
		</g>
		<path class="st5" d="M111.6,48.1c-1.1,0.3-3.6,0.9-7,1.5c-4.4,0.7-11.3,1.6-19.5,1.6c-0.1-1.3-0.2-3.2-0.3-5.4
			c12.5-3.1,22.2-8.9,24.7-10.5c-0.1-0.3-0.3-0.7-0.3-0.7C106.9,36,97,42.1,84.2,45.1l-0.3,0.1l0,0.3c0.1,2.5,0.3,4.7,0.4,6.1l0,0.4
			l0.4,0c11.1,0.1,20.1-1.5,24.6-2.5c1-0.2,1.7-0.4,2.3-0.5C111.5,48.7,111.6,48.1,111.6,48.1z"/>
		<path class="st5" d="M105.3,41c0.6,2.6,0.8,5.2,0.7,7.7c0.3-0.1,0.7-0.1,1-0.2c0.1-2.6-0.2-5.2-0.7-7.8c-0.2-0.9-0.4-1.7-0.7-2.6
			c-0.3,0.1-0.6,0.3-0.9,0.5C105,39.4,105.2,40.2,105.3,41z"/>
		<path class="st5" d="M108.6,36.5c-0.5,0.3-1.1,0.7-1.9,1.1c0.3,1,0.6,1.9,0.8,3c0.6,2.6,0.8,5.2,0.8,7.8c0.8-0.2,1.6-0.3,2.1-0.5
			c0-2.6-0.3-5.2-0.8-7.8C109.4,38.8,109,37.6,108.6,36.5z"/>
		<g>
			<circle class="st5" cx="87.9" cy="48.1" r="1.2"/>
		</g>
		<path class="st5" d="M107.4,58.6c0,0-5-1.7-8.1-5.6c0.4,1.3,1.8,4.1,5.9,6.3c0,0-2.2,9.7,1.5,17c0.7,0.1,1.4,0.2,2.1,0.3
			C107.5,73.9,105.1,67.4,107.4,58.6z"/>
		<g>
			<path class="st4" d="M106.7,76.4c-0.4-0.8-0.7-1.6-1-2.4c0,0,0,0.1,0,0.1c-3.4-4.7-1.6-14.5-1.6-14.5c-4.1-2.5-3.9-4.8-3.9-4.8
				c0,0,0,0,0,0c-0.5-0.8-0.7-1.4-0.9-1.9c0,0,0,0,0,0c-0.3-0.4-0.6-0.8-0.9-1.3c-3.1,0.4-6.7,0.6-10.5,0.7c1.4,3.8,3.2,10.7,3.1,20
				C94.2,73.8,99.7,75.4,106.7,76.4z"/>
		</g>
		<path class="st5" d="M91,72.5c1,0.4,2.3,0.9,3.8,1.3c0.6-11.2-2.6-20.4-2.6-20.4c-1.4,0.1-2.9,0.2-3.9,0.2
			C89.6,57.5,91.1,64,91,72.5z"/>
		<path class="st5" d="M92.7,31.5c-9.7,0-17.6,7.9-17.6,17.6c0,5.4,3.7,14,0.1,19.3c2-0.9,4.8-2,7.7-3c0-4.6-1.7-9.8-1.7-13.5
			c0-9.7,7.9-17.6,17.6-17.6c1.4,0,2.7,0.2,4,0.5C100,32.7,96.5,31.5,92.7,31.5z"/>
	</g>
	<rect x="70.3" y="69.5" class="st3" width="2.5" height="2.5"/>
	<g>
		<path class="st0" d="M22,79.9h-2.5c-0.6,0-1.2,0.3-1.3,0.7L17.8,82c-0.1,0.3,0.1,0.4,0.2,0.6l1.9,1.9l-0.3,1.2h-0.9l0.4-1.5h-1.9
			L16.7,86c-0.1,0.4,0.3,0.7,0.9,0.7h2.5c0.7,0,1.2-0.3,1.3-0.8l0.5-1.7c0.1-0.3-0.1-0.5-0.3-0.7l-1.8-1.8L20,81h0.9l-0.3,1.2h1.9
			l0.4-1.5C23,80.3,22.8,79.9,22,79.9z"/>
		<path class="st0" d="M26.7,79.9l-4.2,6.9h1.9l0.7-1.3H27l0,1.3h2l-0.5-6.9H26.7z M26.9,84.4h-1.1l1-1.8L26.9,84.4z"/>
		<polygon class="st0" points="30.5,86.8 32.4,86.8 34.3,79.9 32.3,79.9 		"/>
		<polygon class="st0" points="38.4,83 36.8,79.9 35.7,79.9 33.9,86.8 35.7,86.8 36.5,83.7 38.1,86.8 39.2,86.8 41.1,79.9 
			39.2,79.9 		"/>
		<polygon class="st0" points="42.2,81 43.9,81 42.3,86.8 44.3,86.8 45.8,81 47.4,81 47.8,79.9 42.5,79.9 		"/>
		<polygon class="st0" points="58.5,79.9 55.7,83.2 54.7,79.9 53.2,79.9 51.4,86.8 53.3,86.8 54,84 54.7,86.8 56.9,83.9 56.2,86.8 
			58.1,86.8 59.9,79.9 		"/>
		<path class="st0" d="M63.7,79.9l-4.2,6.9h1.9l0.7-1.3H64l0,1.3h2l-0.5-6.9H63.7z M64,84.4h-1.1l1-1.8L64,84.4z"/>
		<path class="st0" d="M72.6,83.7c0.7,0,1.2-0.3,1.3-0.8l0.6-2.4c0-0.2,0.1-0.8-1-0.8h-4.1l-1.8,6.9h1.9l1-3.6l0.7,3.6h2.2
			L72.6,83.7z M72,82.6h-1.5L71,81h1.5L72,82.6z"/>
		<polygon class="st0" points="75.9,81 77.5,81 76,86.8 77.9,86.8 79.4,81 81.1,81 81.4,79.9 76.2,79.9 		"/>
		<polygon class="st0" points="81,86.8 82.9,86.8 84.8,79.9 82.9,79.9 		"/>
		<polygon class="st0" points="88.9,83 87.4,79.9 86.3,79.9 84.4,86.8 86.2,86.8 87.1,83.7 88.6,86.8 89.8,86.8 91.6,79.9 
			89.8,79.9 		"/>
		<polygon class="st0" points="92,81.5 93.7,81.5 94.9,79.9 92.7,79.9 		"/>
		<path class="st0" d="M99.1,79.9h-2.5c-0.6,0-1.2,0.3-1.3,0.7L94.9,82c-0.1,0.3,0.1,0.4,0.2,0.6l1.9,1.9l-0.3,1.2h-0.9l0.4-1.5
			h-1.9L93.8,86c-0.1,0.4,0.3,0.7,0.9,0.7h2.5c0.7,0,1.2-0.3,1.3-0.8l0.5-1.7c0.1-0.3-0.1-0.5-0.3-0.7l-1.8-1.8l0.2-0.8H98l-0.3,1.2
			h1.9l0.4-1.5C100.2,80.3,100,79.9,99.1,79.9z"/>
		<path class="st0" d="M107.7,85.6h-1.6l1.5-5.8h-1.9l-1.6,6.2c-0.1,0.5,0.2,0.7,0.9,0.7h3.2c0.7,0,1.2-0.3,1.3-0.7l1.6-6.2h-1.9
			L107.7,85.6z"/>
		<polygon class="st0" points="115.3,83 113.8,79.9 112.7,79.9 110.8,86.8 112.6,86.8 113.4,83.7 115,86.8 116.2,86.8 118,79.9 
			116.2,79.9 		"/>
		<polygon class="st0" points="117.6,86.8 119.6,86.8 121.4,79.9 119.5,79.9 		"/>
		<polygon class="st0" points="124.9,83.6 124.9,79.9 122.9,79.9 123.2,86.8 124.9,86.8 128.9,79.9 126.9,79.9 		"/>
		<polygon class="st0" points="131.2,83.8 133.4,83.8 133.7,82.7 131.5,82.7 132,81 134.3,81 134.6,79.9 130.4,79.9 128.5,86.8 
			132.8,86.8 133.1,85.6 130.7,85.6 		"/>
		<path class="st0" d="M139.3,83.7c0.7,0,1.2-0.3,1.3-0.8l0.6-2.4c0-0.2,0.1-0.8-1-0.8H136l-1.8,6.9h1.9l1-3.6l0.7,3.6h2.2
			L139.3,83.7z M138.7,82.6h-1.5l0.4-1.6h1.5L138.7,82.6z"/>
		<path class="st0" d="M146.5,79.9H144c-0.6,0-1.2,0.3-1.3,0.7l-0.4,1.4c-0.1,0.3,0.1,0.4,0.2,0.6l1.9,1.9l-0.3,1.2h-0.9l0.4-1.5
			h-1.9l-0.5,1.9c-0.1,0.4,0.3,0.7,0.9,0.7h2.5c0.7,0,1.2-0.3,1.3-0.8l0.5-1.7c0.1-0.3-0.1-0.5-0.3-0.7l-1.8-1.8l0.2-0.8h0.9
			l-0.3,1.2h1.9l0.4-1.5C147.5,80.3,147.4,79.9,146.5,79.9z"/>
		<polygon class="st0" points="147.3,86.8 149.2,86.8 151.1,79.9 149.1,79.9 		"/>
		<polygon class="st0" points="152.2,81 153.9,81 152.3,86.8 154.3,86.8 155.8,81 157.4,81 157.7,79.9 152.5,79.9 		"/>
		<polygon class="st0" points="162.8,79.9 161.1,82.3 160.6,79.9 158.6,79.9 159.6,84.1 158.9,86.8 160.8,86.8 161.5,84.1 
			164.8,79.9 		"/>
	</g>
</g>
</svg>
