<svg width="214" height="145" fill="none" xmlns="http://www.w3.org/2000/svg"><g clip-path="url(#clip0)"><path d="M171.526 42.944a31.458 31.458 0 01-2.865 8.01c-1.095 2.139-3.19 5.732-5.678 9.787C169.839 38.873 168.797 14.231 139.7 0c0 0 10.57 10.9 8.088 19.794 0 0-25.771-30.069-72.676-11.205C28.547 27.316 23.712 27.909 0 23.287c0 0 15.614 16.1 56.538 6.172 39.206-9.513 32.287-.194 14.834 10.827-12.047 7.606-23.969 21.773-26.76 38.473 0 0 15.985-19.783 36.717-25.982l.456.563a8.254 8.254 0 011.974 4.811v.116l9.214 81.044.639 5.642h47.141l1.87-2.953 46.266-73.09c4.605-7.25 6.16-8.826 11.629-14.709 5.468-5.883 13.498-11.263 13.498-11.263l-42.49.006z" fill="#EE3124"/><path d="M106.607 53.513a36.044 36.044 0 00-18.516-2.206 14.588 14.588 0 011.99 6.235l9.198 81.044h37.954l46.272-73.09c5.484-8.653 9.428-13.254 12.922-16.186h-19.904c-.336 1.434-6.469 11.998-9.25 16.463l-34.23 53.844v-.042c-4.714-32.29-6.223-57.951-26.436-66.062z" fill="#000"/><path d="M120.273 15.045s14.247 12.418-25.226 23.213a43.267 43.267 0 0120.48 4.686 37.497 37.497 0 018.905 6.366 37.107 37.107 0 013.09 3.383 40.788 40.788 0 015.364 8.726c4.117 9.03 6.254 21.537 4.421 38.93.005-.016 39.923-71.047-17.034-85.304z" fill="#fff"/><path d="M145.954 141.985h2.441v.373h-1.016v2.626h-.408v-2.626h-1.017v-.373zM151.25 144.984v-1.781-.751l-.849 2.532h-.403l-.843-2.532v2.532h-.398v-3.015h.581l.859 2.548.854-2.548h.581v3.015h-.382z" fill="#231F20"/></g><defs><clipPath id="clip0"><path fill="#fff" d="M0 0h214v145H0z"/></clipPath></defs></svg>